<?xml version="1.0" standalone="no"?>
<!DOCTYPE svg PUBLIC "-//W3C//DTD SVG 20010904//EN"
 "http://www.w3.org/TR/2001/REC-SVG-20010904/DTD/svg10.dtd">
<svg version="1.0" xmlns="http://www.w3.org/2000/svg"
 width="260.000000pt" height="260.000000pt" viewBox="0 0 260.000000 260.000000"
 preserveAspectRatio="xMidYMid meet">
<metadata>
Created by potrace 1.14, written by Peter Selinger 2001-2017
</metadata>
<g transform="translate(0.000000,260.000000) scale(0.100000,-0.100000)"
fill="#000000" stroke="none">
<path d="M999 1999 c-17 -17 -19 -35 -19 -164 0 -138 1 -145 20 -145 18 0 20
8 22 143 l3 142 25 0 25 0 3 -142 c2 -134 4 -143 22 -143 18 0 20 9 22 143 l3
142 28 3 27 3 0 -145 c0 -139 1 -146 20 -146 19 0 20 7 20 150 0 179 1 178
-124 178 -63 0 -82 -4 -97 -19z"/>
<path d="M1270 2000 c-18 -18 -20 -33 -20 -165 0 -138 1 -145 20 -145 18 0 20
7 20 75 l0 75 50 0 50 0 0 -75 c0 -68 2 -75 20 -75 19 0 20 7 20 149 0 144 -1
151 -22 165 -33 23 -113 21 -138 -4z m120 -75 l0 -55 -50 0 -50 0 0 48 c0 27
3 52 7 55 3 4 26 7 50 7 l43 0 0 -55z"/>
<path d="M1480 2000 c-15 -15 -20 -33 -20 -71 0 -62 13 -89 45 -89 46 0 55 -9
55 -60 0 -52 -8 -60 -61 -60 -19 0 -29 -5 -29 -15 0 -11 12 -15 49 -15 67 0
81 16 81 89 0 65 -15 87 -65 93 -29 3 -30 5 -30 53 l0 50 43 3 c34 3 42 7 42
23 0 28 -82 27 -110 -1z"/>
<path d="M1630 1856 c0 -160 1 -166 20 -166 20 0 20 5 18 162 -3 146 -5 163
-20 166 -17 3 -18 -10 -18 -162z"/>
<path d="M1229 1526 c-56 -20 -96 -53 -126 -104 -24 -39 -28 -59 -28 -118 0
-61 4 -77 30 -120 76 -122 243 -150 346 -57 58 52 82 105 82 178 0 160 -156
274 -304 221z m160 -35 c69 -36 121 -115 121 -186 0 -41 -22 -97 -52 -131 -98
-112 -266 -94 -336 36 -34 64 -28 152 13 212 58 81 170 112 254 69z"/>
<path d="M1241 1477 c-61 -21 -62 -40 -6 -97 27 -27 53 -50 58 -50 11 0 4 153
-8 156 -5 2 -25 -3 -44 -9z"/>
<path d="M1317 1483 c-4 -3 -7 -40 -7 -82 l0 -75 55 54 c30 30 55 58 55 62 0
16 -92 53 -103 41z"/>
<path d="M1146 1398 c-8 -13 -16 -36 -18 -53 l-3 -30 79 -3 78 -3 -48 55 c-27
31 -55 56 -61 56 -7 0 -19 -10 -27 -22z"/>
<path d="M1377 1372 c-26 -26 -47 -51 -47 -55 0 -4 34 -7 75 -7 74 0 75 0 75
25 0 33 -27 85 -43 85 -7 0 -34 -22 -60 -48z"/>
<path d="M1126 1291 c-7 -11 10 -69 25 -87 19 -23 32 -17 82 41 l48 55 -75 0
c-41 0 -77 -4 -80 -9z"/>
<path d="M1330 1292 c0 -12 94 -102 108 -102 16 0 42 53 42 85 0 25 -1 25 -75
25 -41 0 -75 -4 -75 -8z"/>
<path d="M1235 1230 c-41 -42 -48 -53 -39 -68 12 -19 81 -45 95 -36 11 6 12
154 1 154 -4 0 -30 -23 -57 -50z"/>
<path d="M1310 1208 c0 -42 4 -80 10 -83 12 -7 100 30 100 42 0 5 -25 33 -55
63 l-55 54 0 -76z"/>
<path d="M970 880 c-18 -18 -20 -33 -20 -143 0 -151 8 -167 79 -167 26 0 52 5
59 12 16 16 16 140 0 156 -18 18 -88 16 -88 -3 0 -9 9 -15 24 -15 33 0 48 -22
44 -67 -3 -36 -5 -38 -40 -41 l-38 -3 0 125 0 126 55 0 c48 0 55 2 55 20 0 18
-7 20 -55 20 -42 0 -60 -5 -75 -20z"/>
<path d="M1130 735 c0 -140 2 -165 15 -165 13 0 15 23 15 146 l0 145 38 -3 37
-3 0 -50 c0 -47 -2 -50 -27 -53 -16 -2 -28 -9 -28 -17 0 -8 12 -15 28 -17 26
-3 27 -5 30 -75 3 -64 5 -73 22 -73 18 0 19 9 19 150 0 174 -3 180 -96 180
l-53 0 0 -165z"/>
<path d="M1320 880 c-18 -18 -20 -33 -20 -165 0 -138 1 -145 20 -145 18 0 20
7 20 75 l0 75 45 0 45 0 0 -75 c0 -60 3 -75 15 -75 13 0 15 24 15 155 0 142
-1 155 -19 165 -33 17 -99 12 -121 -10z m108 -77 l3 -53 -45 0 -46 0 0 48 c0
27 3 52 7 56 4 4 23 6 43 4 35 -3 35 -3 38 -55z"/>
<path d="M1490 823 c0 -48 5 -84 12 -91 7 -7 31 -12 55 -12 l43 0 0 -54 0 -55
-52 -3 c-41 -2 -54 -7 -56 -20 -3 -16 5 -18 62 -18 54 0 67 3 76 19 5 11 10
84 10 166 0 134 -1 146 -17 143 -15 -3 -19 -16 -21 -76 l-3 -72 -29 0 c-38 0
-45 13 -45 85 0 49 -3 60 -17 63 -16 3 -18 -6 -18 -75z"/>
</g>
</svg>
